<?xml version="1.0" standalone="no"?>
<!DOCTYPE svg PUBLIC "-//W3C//DTD SVG 20010904//EN"
 "http://www.w3.org/TR/2001/REC-SVG-20010904/DTD/svg10.dtd">
<svg version="1.0" xmlns="http://www.w3.org/2000/svg"
 width="900.000000pt" height="900.000000pt" viewBox="0 0 900.000000 900.000000"
 preserveAspectRatio="xMidYMid meet">
<metadata>
Created by potrace 1.10, written by Peter Selinger 2001-2011
</metadata>
<g transform="translate(0.000000,900.000000) scale(0.100000,-0.100000)"
fill="#000000" stroke="none">
<path d="M4452 8540 c-18 -4 -104 -8 -190 -9 -96 0 -189 -7 -237 -16 -44 -8
-98 -15 -120 -15 -22 0 -65 -7 -95 -15 -30 -8 -72 -15 -92 -15 -20 0 -49 -5
-65 -11 -15 -7 -48 -15 -73 -19 -25 -4 -81 -17 -125 -30 -44 -12 -93 -26 -110
-31 -122 -34 -168 -49 -275 -92 -41 -16 -93 -36 -115 -44 -62 -23 -92 -36
-215 -96 -63 -31 -126 -60 -140 -66 -14 -6 -41 -21 -60 -32 -19 -12 -55 -32
-80 -46 -25 -13 -57 -32 -72 -41 -15 -9 -55 -35 -90 -56 -35 -22 -79 -52 -99
-68 -20 -15 -40 -28 -44 -28 -7 0 -258 -195 -309 -240 -225 -200 -441 -428
-583 -615 -61 -81 -203 -287 -216 -315 -4 -8 -13 -24 -20 -35 -7 -11 -24 -38
-37 -60 -14 -23 -30 -50 -37 -60 -7 -11 -38 -71 -69 -133 -31 -62 -61 -115
-65 -118 -5 -3 -9 -13 -9 -22 0 -9 -16 -50 -36 -91 -19 -42 -39 -85 -43 -96
-5 -11 -16 -37 -25 -58 -9 -21 -16 -45 -16 -55 0 -9 -7 -26 -15 -36 -8 -11
-15 -28 -15 -38 0 -9 -6 -32 -14 -50 -8 -18 -22 -60 -31 -93 -10 -33 -24 -75
-31 -93 -8 -18 -14 -43 -14 -56 0 -13 -7 -40 -15 -59 -8 -20 -15 -48 -15 -63
0 -14 -7 -47 -15 -73 -19 -59 -45 -206 -45 -251 0 -19 -5 -51 -11 -70 -41
-128 -40 -960 0 -1090 6 -19 11 -50 11 -69 0 -39 27 -190 43 -241 6 -19 14
-55 18 -80 4 -25 11 -58 17 -75 10 -28 18 -58 42 -155 10 -41 57 -182 75 -225
7 -16 19 -48 28 -70 69 -180 164 -386 242 -520 19 -33 39 -69 45 -80 16 -29
30 -53 75 -120 22 -33 44 -68 50 -77 34 -57 195 -277 230 -314 5 -6 32 -38 60
-70 79 -94 331 -341 469 -459 137 -117 429 -326 506 -361 8 -4 22 -13 30 -20
39 -32 355 -191 535 -269 91 -39 107 -45 123 -45 10 0 23 -5 29 -11 6 -6 26
-14 44 -19 39 -10 90 -27 137 -46 18 -8 45 -14 60 -14 15 0 36 -7 46 -15 11
-8 34 -15 52 -15 17 0 45 -7 60 -15 16 -8 43 -15 60 -15 17 0 48 -7 67 -15 20
-8 51 -15 69 -15 18 0 55 -7 82 -15 27 -8 70 -15 95 -15 25 0 62 -5 81 -11 42
-14 352 -31 545 -31 200 0 495 17 528 31 16 6 50 11 76 11 26 0 70 7 97 15 27
8 66 15 87 15 21 0 54 7 74 15 19 8 50 15 67 15 17 1 42 7 56 15 14 8 36 14
50 15 26 0 62 10 190 55 41 15 92 30 113 35 21 4 44 13 50 19 6 6 20 11 30 11
10 0 31 6 45 13 15 8 43 21 62 29 19 8 53 23 75 32 22 10 56 25 75 33 19 8 42
19 50 24 8 5 22 12 30 15 19 7 90 42 110 54 8 5 22 11 30 14 8 4 29 15 45 26
17 11 42 25 58 31 15 6 27 15 27 20 0 5 9 9 19 9 11 0 23 5 26 11 4 5 17 15
28 20 35 16 69 36 76 46 8 10 39 30 69 43 12 5 22 14 22 20 0 5 5 10 11 10 6
0 28 14 49 30 21 17 41 30 44 30 8 0 181 137 271 214 76 65 364 353 431 431
115 134 274 346 274 365 0 4 3 10 8 12 8 3 45 55 55 78 4 8 16 29 27 45 11 17
23 38 26 48 4 9 10 17 14 17 5 0 13 12 19 27 6 16 20 42 31 58 11 17 24 39 30
50 5 11 15 29 22 40 23 41 28 50 34 65 3 8 10 22 15 30 5 8 12 22 15 30 11 29
37 85 46 100 4 8 11 22 14 30 10 26 36 84 50 113 8 16 14 36 14 46 0 9 4 21 9
27 10 9 36 76 51 129 11 40 29 92 46 133 8 18 14 44 14 58 0 14 5 35 12 47 6
12 15 40 19 62 8 43 22 98 45 181 8 28 14 66 14 85 0 19 7 52 15 74 8 22 14
70 15 107 0 37 5 79 12 95 10 26 30 352 28 488 -1 153 -19 464 -29 495 -6 19
-11 60 -11 91 0 31 -7 78 -15 105 -8 27 -15 66 -15 86 0 20 -5 49 -11 65 -7
15 -15 46 -19 68 -12 65 -31 138 -46 173 -8 18 -14 44 -14 57 0 13 -6 39 -14
57 -17 41 -35 93 -46 133 -15 53 -41 120 -51 129 -5 6 -9 19 -9 29 0 10 -6 31
-13 45 -8 15 -21 43 -29 62 -48 114 -119 259 -129 266 -5 3 -9 12 -9 19 0 12
-66 133 -100 185 -6 8 -13 22 -17 30 -3 8 -18 31 -33 50 -15 19 -30 42 -33 50
-20 43 -191 288 -221 315 -6 6 -40 46 -76 90 -81 101 -113 135 -285 309 -262
264 -602 512 -940 686 -44 23 -87 45 -95 50 -33 19 -195 90 -260 115 -25 9
-58 22 -75 29 -48 20 -98 38 -125 43 -14 3 -31 10 -38 16 -7 5 -29 13 -50 17
-20 5 -50 13 -67 18 -16 6 -57 18 -90 27 -33 9 -80 23 -105 31 -25 8 -58 14
-73 14 -15 0 -44 7 -64 15 -19 8 -54 15 -78 15 -23 0 -64 7 -91 15 -27 8 -70
15 -95 15 -26 0 -80 7 -120 15 -41 8 -151 17 -249 19 -96 2 -184 6 -195 9 -11
3 -35 2 -53 -3z m418 -579 c25 -5 106 -18 180 -30 74 -12 158 -28 185 -36 28
-8 93 -25 145 -38 52 -14 118 -31 145 -40 44 -13 82 -26 262 -91 141 -51 520
-260 668 -367 270 -197 277 -203 432 -359 230 -231 308 -322 456 -531 80 -115
219 -352 266 -455 11 -23 30 -65 44 -95 35 -76 54 -123 84 -209 14 -41 29 -79
33 -85 22 -29 126 -445 135 -542 3 -34 13 -95 22 -135 25 -108 25 -812 1 -908
-9 -36 -19 -96 -23 -135 -6 -67 -46 -244 -87 -385 -22 -78 -52 -130 -73 -130
-8 0 -48 27 -88 60 -213 178 -425 286 -662 339 -177 39 -205 42 -360 42 -187
-1 -275 -16 -505 -86 -139 -43 -367 -181 -500 -303 -57 -53 -77 -54 -85 -4
-17 104 -70 174 -236 312 -71 60 -142 148 -191 238 l-32 59 16 59 c30 107 41
198 34 285 -3 46 -9 141 -12 210 -6 119 -5 130 16 175 62 129 274 291 535 410
79 36 154 99 176 149 24 53 25 146 2 188 -10 18 -33 52 -52 77 -32 43 -33 48
-28 112 6 65 5 67 -29 102 -34 35 -34 36 -19 65 23 45 19 57 -28 104 -85 83
-105 133 -69 173 63 69 67 129 13 171 -51 41 -120 81 -141 85 -14 2 -29 14
-36 28 -15 33 -84 192 -118 275 -10 22 -21 48 -26 57 -14 25 -13 28 15 28 16
0 25 6 25 15 0 8 -4 15 -9 15 -5 0 -16 7 -25 15 -13 13 -15 13 -21 -5 -11 -35
-57 -23 -70 19 -7 22 -5 24 24 18 24 -5 33 -2 42 14 6 11 24 26 41 33 l30 13
-47 12 c-32 8 -49 18 -52 31 -7 26 -33 26 -33 1 0 -11 -5 -23 -10 -26 -15 -9
-50 4 -50 19 0 8 -7 19 -15 26 -8 7 -15 24 -15 39 0 14 -4 32 -9 40 -7 11 -10
9 -16 -8 -8 -27 -22 -23 -49 12 -20 27 -15 50 6 29 14 -14 41 -16 36 -4 -1 5
-34 36 -73 69 -38 34 -96 86 -128 116 -69 66 -142 116 -217 148 -51 22 -86 40
-165 86 -24 13 -59 18 -164 20 -96 2 -147 7 -178 19 -34 13 -61 16 -123 11
-44 -4 -89 -11 -99 -17 -11 -5 -40 -10 -65 -10 -24 0 -57 -5 -73 -11 -15 -6
-48 -14 -73 -19 -102 -18 -187 -69 -250 -148 -22 -29 -51 -57 -64 -61 -12 -5
-35 -20 -52 -34 -45 -38 -69 -47 -120 -47 -50 0 -100 -24 -131 -64 -20 -25
-140 -119 -163 -128 -8 -3 -24 -23 -35 -44 -10 -22 -34 -56 -52 -77 -18 -20
-33 -41 -33 -46 0 -5 -16 -12 -35 -15 -46 -9 -55 -29 -56 -123 l0 -78 -57 -46
c-32 -26 -64 -60 -72 -75 -8 -16 -25 -45 -39 -64 -67 -91 -102 -177 -130 -318
-20 -97 -12 -229 20 -357 6 -22 14 -58 18 -80 4 -22 12 -49 17 -60 36 -70 44
-88 44 -95 0 -11 70 -133 80 -140 4 -3 19 -23 34 -44 66 -99 433 -471 501
-509 10 -5 40 -9 66 -8 26 1 66 -6 88 -15 33 -13 47 -14 75 -4 37 12 103 7
166 -12 19 -6 61 -36 92 -66 31 -30 85 -73 118 -95 34 -22 78 -61 98 -88 42
-54 56 -59 82 -27 l18 23 39 -22 c59 -34 60 -40 15 -129 -49 -97 -120 -239
-139 -279 -8 -16 -35 -48 -59 -70 -59 -54 -135 -196 -184 -345 -5 -14 -21 -61
-35 -105 -15 -44 -29 -93 -32 -110 -2 -16 -11 -44 -19 -62 -8 -17 -14 -37 -14
-44 0 -7 -6 -35 -14 -63 -32 -111 -44 -164 -91 -381 -9 -44 -21 -98 -27 -120
-6 -22 -14 -64 -19 -95 -4 -30 -18 -104 -29 -165 -24 -122 -33 -192 -49 -370
-6 -66 -16 -167 -22 -225 -6 -58 -13 -250 -16 -427 -4 -219 -9 -326 -17 -332
-7 -6 -31 -2 -66 11 -30 11 -73 27 -95 35 -64 23 -313 150 -400 204 -44 27
-89 55 -100 61 -341 202 -725 563 -981 923 -55 77 -117 168 -137 202 -55 90
-176 313 -183 337 -4 12 -19 46 -35 77 -15 30 -43 101 -63 157 -19 55 -42 114
-50 131 -17 32 -101 343 -116 426 -5 28 -14 84 -20 125 -6 41 -18 116 -26 165
-9 63 -14 185 -14 410 0 279 3 337 21 450 12 72 25 157 29 190 13 101 113 471
144 530 9 17 16 35 16 40 0 31 79 207 185 415 93 183 291 478 419 625 159 183
418 427 545 513 18 13 40 29 48 37 29 30 229 162 343 227 93 53 308 159 380
188 206 83 424 153 510 166 25 4 53 11 62 15 18 10 272 56 373 69 82 10 749
11 805 1z m370 -1186 c0 -8 14 -34 30 -57 17 -22 30 -47 30 -55 0 -7 5 -13 10
-13 20 0 10 -41 -13 -49 -13 -5 -29 -16 -36 -25 -15 -18 -66 -22 -76 -6 -3 5
3 20 14 32 26 27 26 35 1 48 -38 20 -16 140 26 140 8 0 14 -7 14 -15z m-2696
-657 c-2 -24 -4 -105 -5 -180 -1 -110 2 -141 15 -160 18 -25 21 -73 6 -83 -5
-3 -12 7 -15 22 -3 15 -13 42 -21 58 -11 23 -15 68 -15 175 -1 140 3 171 24
198 14 18 15 16 11 -30z m4172 -3158 c75 -37 80 -56 76 -335 -2 -143 -9 -272
-17 -320 -12 -70 -18 -84 -49 -112 -62 -57 -117 -56 -162 2 -37 49 -43 83 -59
320 -18 262 -18 353 -1 384 19 34 95 80 135 80 19 1 54 -8 77 -19z m14 -1038
c54 -39 75 -124 45 -182 -25 -48 -66 -70 -129 -70 -50 0 -59 3 -96 38 -37 36
-40 43 -40 95 0 46 5 61 27 88 15 17 41 38 58 45 37 17 101 10 135 -14z"/>
</g>
</svg>
